<svg width="119" height="31" viewBox="0 0 119 31" fill="none" xmlns="http://www.w3.org/2000/svg">
<path d="M7.32018 1.25995H0.000175953V22.2H7.32018C14.0102 22.2 18.3602 18.09 18.3602 11.76C18.3602 5.39995 14.0102 1.25995 7.32018 1.25995ZM4.20018 18.63V4.79995H7.17018C11.5802 4.79995 14.0702 7.40995 14.0702 11.76C14.0702 16.11 11.5802 18.63 7.17018 18.63H4.20018ZM20.4241 13.83C20.4241 19.02 23.7841 22.47 27.9841 22.47C30.6241 22.47 32.5141 21.21 33.5041 19.77V22.2H37.7341V5.57995H33.5041V7.94995C32.5141 6.56995 30.6841 5.30995 28.0141 5.30995C23.7841 5.30995 20.4241 8.63995 20.4241 13.83ZM33.5041 13.89C33.5041 17.04 31.4041 18.78 29.0941 18.78C26.8441 18.78 24.7141 16.98 24.7141 13.83C24.7141 10.68 26.8441 8.99995 29.0941 8.99995C31.4041 8.99995 33.5041 10.74 33.5041 13.89ZM46.0361 8.00995V-4.91142e-05H41.8361V22.2H46.0361V19.83C47.0561 21.27 48.9161 22.47 51.5261 22.47C55.7861 22.47 59.1161 19.02 59.1161 13.83C59.1161 8.63995 55.7861 5.30995 51.5261 5.30995C49.0061 5.30995 47.0561 6.47995 46.0361 8.00995ZM54.8261 13.83C54.8261 16.98 52.6961 18.78 50.4161 18.78C48.1661 18.78 46.0361 17.04 46.0361 13.89C46.0361 10.74 48.1661 8.99995 50.4161 8.99995C52.6961 8.99995 54.8261 10.68 54.8261 13.83ZM61.0881 13.83C61.0881 19.02 64.4481 22.47 68.6481 22.47C71.2881 22.47 73.1781 21.21 74.1681 19.77V22.2H78.3981V5.57995H74.1681V7.94995C73.1781 6.56995 71.3481 5.30995 68.6781 5.30995C64.4481 5.30995 61.0881 8.63995 61.0881 13.83ZM74.1681 13.89C74.1681 17.04 72.0681 18.78 69.7581 18.78C67.5081 18.78 65.3781 16.98 65.3781 13.83C65.3781 10.68 67.5081 8.99995 69.7581 8.99995C72.0681 8.99995 74.1681 10.74 74.1681 13.89ZM94.1402 22.2H98.3402V12.45C98.3402 7.85995 95.5802 5.33995 91.7102 5.33995C89.5802 5.33995 87.7802 6.23995 86.7002 7.64995V5.57995H82.5002V22.2H86.7002V13.02C86.7002 10.35 88.1702 8.90995 90.4502 8.90995C92.6702 8.90995 94.1402 10.35 94.1402 13.02V22.2ZM101.254 13.83C101.254 19.02 104.614 22.47 108.844 22.47C111.454 22.47 113.344 21.18 114.334 19.74V22.32C114.334 25.41 112.534 26.73 110.224 26.73C108.124 26.73 106.564 25.74 106.144 24.24H101.974C102.394 28.05 105.664 30.39 110.344 30.39C115.804 30.39 118.564 26.82 118.564 22.32V5.57995H114.334V7.94995C113.344 6.50995 111.454 5.30995 108.844 5.30995C104.614 5.30995 101.254 8.63995 101.254 13.83ZM114.334 13.89C114.334 17.04 112.234 18.78 109.924 18.78C107.674 18.78 105.544 16.98 105.544 13.83C105.544 10.68 107.674 8.99995 109.924 8.99995C112.234 8.99995 114.334 10.74 114.334 13.89Z" fill="#151D48"/>
</svg>
