<svg width="56" height="56" viewBox="0 0 56 56" fill="none" xmlns="http://www.w3.org/2000/svg">
<rect width="56" height="56" rx="8" fill="#5D5FEF"/>
<path d="M22.3743 17.6272C21.2422 18.7803 21.2422 20.6461 22.3952 21.7992L24.911 24.315C27.28 26.684 27.28 30.5415 24.911 32.9105L20.2988 28.2983C19.1143 27.1138 18.5168 25.5519 18.5168 24.0005C18.5168 22.4491 19.1143 20.8872 20.2988 19.7027L22.3428 17.6586C22.3533 17.6482 22.3638 17.6377 22.3743 17.6272Z" fill="#5D5FEF" stroke="white" stroke-width="2" stroke-miterlimit="10"/>
<path d="M24.387 23.7898L22.3953 21.7981C21.2422 20.6451 21.2318 18.7897 22.3743 17.6261C23.5064 16.515 25.3094 16.536 26.431 17.6576C26.9971 18.2236 27.2801 18.9679 27.2801 19.7017C27.2801 20.4354 26.9971 21.1797 26.431 21.7457L25.9593 22.2174" fill="#5D5FEF"/>
<path d="M24.387 23.7898L22.3953 21.7981C21.2422 20.6451 21.2318 18.7897 22.3743 17.6261C23.5064 16.515 25.3094 16.536 26.431 17.6576C26.9971 18.2236 27.2801 18.9679 27.2801 19.7017C27.2801 20.4354 26.9971 21.1797 26.431 21.7457L25.9593 22.2174" stroke="white" stroke-width="2" stroke-miterlimit="10"/>
<path d="M34.2714 38.2245C35.4035 37.0714 35.4035 35.2056 34.2504 34.0525L31.7346 31.5367C29.3656 29.1677 29.3656 25.3102 31.7346 22.9412L36.3469 27.5534C37.5314 28.7379 38.1289 30.2998 38.1289 31.8512C38.1289 33.4026 37.5314 34.9645 36.3469 36.149L34.3028 38.1931C34.2819 38.214 34.2714 38.2245 34.2714 38.2245Z" fill="#5D5FEF" stroke="white" stroke-width="2" stroke-miterlimit="10"/>
<path d="M32.2478 32.0713L34.2395 34.0629C35.3925 35.216 35.403 37.0714 34.2604 38.2349C33.1283 39.3461 31.3254 39.3251 30.2037 38.2035C29.6377 37.6374 29.3547 36.8932 29.3547 36.1594C29.3547 35.4257 29.6377 34.6814 30.2037 34.1154L30.6859 33.6332" fill="#5D5FEF"/>
<path d="M32.2478 32.0713L34.2395 34.0629C35.3925 35.216 35.403 37.0714 34.2604 38.2349C33.1283 39.3461 31.3254 39.3251 30.2037 38.2035C29.6377 37.6374 29.3547 36.8932 29.3547 36.1594C29.3547 35.4257 29.6377 34.6814 30.2037 34.1154L30.6859 33.6332" stroke="white" stroke-width="2" stroke-miterlimit="10"/>
</svg>
