<svg width="32" height="32" viewBox="0 0 32 32" fill="none" xmlns="http://www.w3.org/2000/svg">
<mask id="mask0_64779_13" style="mask-type:luminance" maskUnits="userSpaceOnUse" x="0" y="0" width="32" height="32">
<path d="M32 0H0V32H32V0Z" fill="white"/>
</mask>
<g mask="url(#mask0_64779_13)">
<path d="M13.6712 7.84606L14.0424 13.3661L14.2267 16.1401C14.2287 16.4251 14.2733 16.7091 14.3596 16.9811C14.5821 17.5101 15.1176 17.8461 15.7001 17.8231L24.5764 17.2421C24.9608 17.2361 25.332 17.3791 25.6083 17.6421C25.8385 17.8601 25.9872 18.1461 26.0341 18.4541L26.0499 18.6401C25.6825 23.7261 21.9469 27.9691 16.8712 29.0641C11.7954 30.1591 6.59047 27.8461 4.08227 23.3801C3.35917 22.0821 2.90747 20.6561 2.75377 19.1851C2.68957 18.7501 2.66137 18.3101 2.66927 17.8701C2.66137 12.4171 6.54457 7.70306 11.9804 6.56606C12.6347 6.46406 13.276 6.81006 13.5384 7.40706C13.6063 7.54606 13.6511 7.69406 13.6712 7.84606Z" fill="white"/>
<path opacity="0.4" d="M29.3347 13.0831L29.3254 13.1261L29.2985 13.1901L29.3022 13.3631C29.2883 13.5931 29.1995 13.8141 29.0467 13.9931C28.8874 14.1791 28.6698 14.3051 28.4302 14.3541L28.2841 14.3741L18.043 15.0381C17.7023 15.0721 17.3631 14.9621 17.1099 14.7361C16.8987 14.5471 16.7638 14.2931 16.7257 14.0191L16.0383 3.79312C16.0263 3.75912 16.0263 3.72112 16.0383 3.68712C16.0477 3.40512 16.1718 3.13812 16.3829 2.94712C16.5938 2.75512 16.8743 2.65512 17.1614 2.66812C23.2413 2.82212 28.3511 7.19411 29.3347 13.0831Z" fill="white"/>
</g>
</svg>
