<svg width="24" height="24" viewBox="0 0 24 24" fill="none" xmlns="http://www.w3.org/2000/svg">
<mask id="mask0_64779_57" style="mask-type:luminance" maskUnits="userSpaceOnUse" x="0" y="0" width="24" height="24">
<path d="M24 0H0V24H24V0Z" fill="white"/>
</mask>
<g mask="url(#mask0_64779_57)">
<path d="M11.9998 0.75C9.87976 0.7517 7.80977 1.3516 6.00977 2.4808H17.9697C16.1797 1.3546 14.1098 0.7548 11.9998 0.75Z" fill="#B22234"/>
<path d="M6.01038 2.48071C5.24038 2.96961 4.53039 3.55081 3.90039 4.21141H20.1104C19.4704 3.54891 18.7503 2.96761 17.9703 2.48071H6.01038Z" fill="white"/>
<path d="M3.89929 4.21143C3.38929 4.74233 2.9293 5.32203 2.5293 5.94223H21.4792C21.0792 5.32203 20.6193 4.74233 20.1093 4.21143H3.89929Z" fill="#B22234"/>
<path d="M2.52917 5.94238C2.17917 6.49158 1.86914 7.07068 1.61914 7.67308H22.3691C22.1291 7.07138 21.8291 6.49228 21.4791 5.94238H2.52917Z" fill="white"/>
<path d="M1.62036 7.6731C1.39036 8.2342 1.20031 8.813 1.07031 9.4039H22.9304C22.7904 8.8128 22.6104 8.234 22.3704 7.6731H1.62036Z" fill="#B22234"/>
<path d="M1.06897 9.40381C0.92897 9.97281 0.839063 10.5515 0.789062 11.1346H23.209C23.159 10.5513 23.0691 9.97261 22.9291 9.40381H1.06897Z" fill="white"/>
<path d="M0.790039 11.1348C0.770039 11.4226 0.75 11.7112 0.75 12.0001C0.75 12.2889 0.760039 12.5776 0.790039 12.8655H23.21C23.23 12.5777 23.25 12.289 23.25 12.0001C23.25 11.7113 23.24 11.4226 23.21 11.1348H0.790039Z" fill="#B22234"/>
<path d="M0.789062 12.8652C0.829062 13.4486 0.92897 14.0273 1.06897 14.596H22.9291C23.0691 14.0271 23.159 13.4484 23.209 12.8652H0.789062Z" fill="white"/>
<path d="M1.07031 14.5962C1.21031 15.1873 1.39037 15.7661 1.63037 16.327H22.3804C22.6104 15.7659 22.8004 15.1871 22.9304 14.5962H1.07031Z" fill="#B22234"/>
<path d="M1.63086 16.3269C1.87086 16.9286 2.17087 17.5077 2.52087 18.0576H21.4708C21.8208 17.5084 22.1309 16.9293 22.3809 16.3269H1.63086Z" fill="white"/>
<path d="M2.51953 18.0576C2.91953 18.6778 3.37953 19.2576 3.88953 19.7884H20.0995C20.6095 19.2576 21.0695 18.6779 21.4695 18.0576H2.51953Z" fill="#B22234"/>
<path d="M3.89062 19.7886C4.53062 20.4511 5.25064 21.0324 6.03064 21.5193H17.9906C18.7606 21.0304 19.4706 20.4492 20.1006 19.7886H3.89062Z" fill="white"/>
<path d="M6.0293 21.5193C7.8193 22.6455 9.88927 23.2453 11.9993 23.2501C14.1193 23.2484 16.1893 22.6484 17.9893 21.5193H6.0293Z" fill="#B22234"/>
<path d="M12 0.75C9.02 0.75 6.15005 1.9353 4.05005 4.045C1.94005 6.1548 0.75 9.0163 0.75 12C0.75 12.2973 0.760039 12.5944 0.790039 12.8906H12.89V0.794601C12.59 0.768001 12.3 0.7531 12 0.75Z" fill="#3C3B6E"/>
<path d="M7.97083 1.50847C7.82083 1.56317 7.68088 1.62107 7.53088 1.68207L7.6908 1.80697L7.58081 2.16617L7.88086 1.94637L8.18091 2.17667L8.06091 1.80497L8.37085 1.57877H8.00085L7.97083 1.50847ZM9.88086 1.20117L9.77087 1.57867H9.39087L9.6908 1.80697L9.58081 2.16617L9.88086 1.94637L10.1809 2.17667L10.0708 1.80497L10.3708 1.57867H10.0009L9.88086 1.20117ZM11.8809 1.20117L11.7709 1.57867H11.4009L11.7008 1.80697L11.5908 2.16617L11.8809 1.94637L12.1809 2.17667L12.0708 1.80497L12.3708 1.57867H12.0009L11.8809 1.20117ZM5.08081 3.14727C5.03081 3.18667 4.9709 3.22657 4.9209 3.26697L5.1709 3.45947L5.08081 3.14727ZM6.88086 2.48397L6.76086 2.86157H6.39087L6.6908 3.08987L6.58081 3.44897L6.87085 3.22917L7.18091 3.45947L7.06091 3.08787L7.37085 2.86157H6.99084L6.88086 2.48397ZM8.88086 2.48397L8.76086 2.86157H8.39087L8.6908 3.08987L8.58081 3.44897L8.88086 3.22917L9.18091 3.45947L9.0708 3.08787L9.37085 2.86157H9.00085L8.88086 2.48397ZM10.8809 2.48397L10.7709 2.86157H10.4009L10.7008 3.08987L10.5808 3.44897L10.8809 3.22917L11.1809 3.45947L11.0708 3.08787L11.3708 2.86157H11.0009L10.8809 2.48397ZM3.98083 4.11407C3.87083 4.23157 3.76089 4.35147 3.66089 4.47357L3.58081 4.73177L3.87085 4.51188L4.1709 4.74227L4.06091 4.37067L4.36084 4.14437H3.99084L3.98083 4.11407ZM5.88086 3.76677L5.76086 4.14437H5.39087L5.6908 4.37267L5.58081 4.73177L5.87085 4.51197L6.18091 4.74227L6.06091 4.37067L6.37085 4.14437H5.99084L5.88086 3.76677ZM7.88086 3.76677L7.76086 4.14437H7.39087L7.6908 4.37267L7.58081 4.73177L7.88086 4.51197L8.18091 4.74227L8.06091 4.37067L8.37085 4.14437H8.00085L7.88086 3.76677ZM9.88086 3.76677L9.77087 4.14437H9.39087L9.6908 4.37267L9.58081 4.73177L9.88086 4.51197L10.1809 4.74227L10.0708 4.37067L10.3708 4.14437H10.0009L9.88086 3.76677ZM11.8809 3.76677L11.7709 4.14437H11.4009L11.7008 4.37267L11.5908 4.73177L11.8809 4.51197L12.1809 4.74227L12.0708 4.37067L12.3708 4.14437H12.0009L11.8809 3.76677ZM2.96082 5.32697C2.85082 5.46517 2.75089 5.60567 2.66089 5.74847L2.5708 6.01457L2.87085 5.79477L3.1709 6.02507L3.06091 5.65347L3.36084 5.42717H2.99084L2.96082 5.32697ZM4.88086 5.04957L4.76086 5.42717H4.39087L4.6908 5.65547L4.58081 6.01457L4.87085 5.79477L5.1709 6.02507L5.06091 5.65347L5.36084 5.42717H4.99084L4.88086 5.04957ZM6.88086 5.04957L6.76086 5.42717H6.39087L6.6908 5.65547L6.58081 6.01457L6.87085 5.79477L7.18091 6.02507L7.06091 5.65347L7.37085 5.42717H6.99084L6.88086 5.04957ZM8.88086 5.04957L8.76086 5.42717H8.39087L8.6908 5.65547L8.58081 6.01457L8.88086 5.79477L9.18091 6.02507L9.0708 5.65347L9.37085 5.42717H9.00085L8.88086 5.04957ZM10.8809 5.04957L10.7709 5.42717H10.4009L10.7008 5.65547L10.5808 6.01457L10.8809 5.79477L11.1809 6.02507L11.0708 5.65347L11.3708 5.42717H11.0009L10.8809 5.04957ZM2.08081 6.70997C2.01081 6.83597 1.95087 6.96327 1.89087 7.09177L2.1709 7.30797L2.06091 6.93637L2.36084 6.70997H2.08081ZM3.87085 6.33237L3.76086 6.70997H3.39087L3.6908 6.93827L3.58081 7.29737L3.87085 7.07757L4.1709 7.30797L4.06091 6.93627L4.36084 6.70997H3.99084L3.87085 6.33237ZM5.88086 6.33237L5.76086 6.70997H5.39087L5.6908 6.93827L5.58081 7.29737L5.87085 7.07757L6.18091 7.30797L6.06091 6.93627L6.37085 6.70997H5.99084L5.88086 6.33237ZM7.88086 6.33237L7.76086 6.70997H7.39087L7.6908 6.93827L7.58081 7.29737L7.88086 7.07757L8.18091 7.30797L8.06091 6.93627L8.37085 6.70997H8.00085L7.88086 6.33237ZM9.88086 6.33237L9.77087 6.70997H9.39087L9.6908 6.93827L9.58081 7.29737L9.88086 7.07757L10.1809 7.30797L10.0708 6.93627L10.3708 6.70997H10.0009L9.88086 6.33237ZM11.8809 6.33237L11.7709 6.70997H11.4009L11.7008 6.93827L11.5908 7.29737L11.8809 7.07757L12.1809 7.30797L12.0708 6.93627L12.3708 6.70997H12.0009L11.8809 6.33237ZM2.87085 7.61517L2.76086 7.99277H2.39087L2.6908 8.22107L2.5708 8.58017L2.87085 8.36037L3.1709 8.59067L3.06091 8.21907L3.36084 7.99277H2.99084L2.87085 7.61517ZM4.88086 7.61517L4.76086 7.99277H4.39087L4.6908 8.22107L4.58081 8.58017L4.87085 8.36037L5.1709 8.59067L5.06091 8.21907L5.36084 7.99277H4.99084L4.88086 7.61517ZM6.88086 7.61517L6.76086 7.99277H6.39087L6.6908 8.22107L6.58081 8.58017L6.87085 8.36037L7.18091 8.59067L7.06091 8.21907L7.37085 7.99277H6.99084L6.88086 7.61517ZM8.88086 7.61517L8.76086 7.99277H8.39087L8.6908 8.22107L8.58081 8.58017L8.88086 8.36037L9.18091 8.59067L9.0708 8.21907L9.37085 7.99277H9.00085L8.88086 7.61517ZM10.8809 7.61517L10.7709 7.99277H10.4009L10.7008 8.22107L10.5808 8.58017L10.8809 8.36037L11.1809 8.59067L11.0708 8.21907L11.3708 7.99277H11.0009L10.8809 7.61517ZM1.87085 8.89797L1.76086 9.27557H1.38086L1.68091 9.50387L1.5708 9.86297L1.87085 9.64317L2.1709 9.87357L2.06091 9.50187L2.36084 9.27557H1.99084L1.87085 8.89797ZM3.87085 8.89797L3.76086 9.27557H3.39087L3.6908 9.50387L3.58081 9.86297L3.87085 9.64317L4.1709 9.87357L4.06091 9.50187L4.36084 9.27557H3.99084L3.87085 8.89797ZM5.88086 8.89797L5.76086 9.27557H5.39087L5.6908 9.50387L5.58081 9.86297L5.87085 9.64317L6.18091 9.87357L6.06091 9.50187L6.37085 9.27557H5.99084L5.88086 8.89797ZM7.88086 8.89797L7.76086 9.27557H7.39087L7.6908 9.50387L7.58081 9.86297L7.88086 9.64317L8.18091 9.87357L8.06091 9.50187L8.37085 9.27557H8.00085L7.88086 8.89797ZM9.88086 8.89797L9.77087 9.27557H9.39087L9.6908 9.50387L9.58081 9.86297L9.88086 9.64317L10.1809 9.87357L10.0708 9.50187L10.3708 9.27557H10.0009L9.88086 8.89797ZM11.8809 8.89797L11.7709 9.27557H11.4009L11.7008 9.50387L11.5908 9.86297L11.8809 9.64317L12.1809 9.87357L12.0708 9.50187L12.3708 9.27557H12.0009L11.8809 8.89797ZM2.87085 10.1809L2.76086 10.5584H2.39087L2.6908 10.7867L2.5708 11.1459L2.87085 10.9261L3.1709 11.1564L3.06091 10.7847L3.36084 10.5584H2.99084L2.87085 10.1809ZM4.88086 10.1809L4.76086 10.5584H4.39087L4.6908 10.7867L4.58081 11.1459L4.87085 10.9261L5.1709 11.1564L5.06091 10.7847L5.36084 10.5584H4.99084L4.88086 10.1809ZM6.88086 10.1809L6.76086 10.5584H6.39087L6.6908 10.7867L6.58081 11.1459L6.87085 10.9261L7.18091 11.1564L7.06091 10.7847L7.37085 10.5584H6.99084L6.88086 10.1809ZM8.88086 10.1809L8.76086 10.5584H8.39087L8.6908 10.7867L8.58081 11.1459L8.88086 10.9261L9.18091 11.1564L9.0708 10.7847L9.37085 10.5584H9.00085L8.88086 10.1809ZM10.8809 10.1809L10.7709 10.5584H10.4009L10.7008 10.7867L10.5808 11.1459L10.8809 10.9261L11.1809 11.1564L11.0708 10.7847L11.3708 10.5584H11.0009L10.8809 10.1809ZM1.87085 11.4637L1.76086 11.8412H1.38086L1.68091 12.0695L1.5708 12.4286L1.87085 12.2088L2.1709 12.4392L2.06091 12.0675L2.36084 11.8412H1.99084L1.87085 11.4637ZM3.87085 11.4637L3.76086 11.8412H3.39087L3.6908 12.0695L3.58081 12.4286L3.87085 12.2088L4.1709 12.4392L4.06091 12.0675L4.36084 11.8412H3.99084L3.87085 11.4637ZM5.88086 11.4637L5.76086 11.8412H5.39087L5.6908 12.0695L5.58081 12.4286L5.87085 12.2088L6.18091 12.4392L6.06091 12.0675L6.37085 11.8412H5.99084L5.88086 11.4637ZM7.88086 11.4637L7.76086 11.8412H7.39087L7.6908 12.0695L7.58081 12.4286L7.88086 12.2088L8.18091 12.4392L8.06091 12.0675L8.37085 11.8412H8.00085L7.88086 11.4637ZM9.88086 11.4637L9.77087 11.8412H9.39087L9.6908 12.0695L9.58081 12.4286L9.88086 12.2088L10.1809 12.4392L10.0708 12.0675L10.3708 11.8412H10.0009L9.88086 11.4637ZM11.8809 11.4637L11.7709 11.8412H11.4009L11.7008 12.0695L11.5908 12.4286L11.8809 12.2088L12.1809 12.4392L12.0708 12.0675L12.3708 11.8412H12.0009L11.8809 11.4637Z" fill="white"/>
</g>
</svg>
