<svg width="200" height="27" viewBox="0 0 200 27" fill="none" xmlns="http://www.w3.org/2000/svg">
<path d="M8.784 1.512C11.424 1.512 13.74 2.028 15.732 3.06C17.748 4.092 19.296 5.568 20.376 7.488C21.48 9.384 22.032 11.592 22.032 14.112C22.032 16.632 21.48 18.84 20.376 20.736C19.296 22.608 17.748 24.06 15.732 25.092C13.74 26.124 11.424 26.64 8.784 26.64H0V1.512H8.784ZM8.604 22.356C11.244 22.356 13.284 21.636 14.724 20.196C16.164 18.756 16.884 16.728 16.884 14.112C16.884 11.496 16.164 9.456 14.724 7.992C13.284 6.504 11.244 5.76 8.604 5.76H5.03998V22.356H8.604ZM24.509 16.596C24.509 14.58 24.905 12.792 25.697 11.232C26.513 9.672 27.605 8.472 28.973 7.632C30.365 6.792 31.913 6.372 33.617 6.372C35.105 6.372 36.401 6.672 37.505 7.272C38.633 7.872 39.533 8.628 40.205 9.54V6.696H45.281V26.64H40.205V23.724C39.557 24.66 38.657 25.44 37.505 26.064C36.377 26.664 35.069 26.964 33.581 26.964C31.901 26.964 30.365 26.532 28.973 25.668C27.605 24.804 26.513 23.592 25.697 22.032C24.905 20.448 24.509 18.636 24.509 16.596ZM40.205 16.668C40.205 15.444 39.965 14.4 39.485 13.536C39.005 12.648 38.357 11.976 37.541 11.52C36.725 11.04 35.849 10.8 34.913 10.8C33.977 10.8 33.113 11.028 32.321 11.484C31.529 11.94 30.881 12.612 30.377 13.5C29.897 14.364 29.657 15.396 29.657 16.596C29.657 17.796 29.897 18.852 30.377 19.764C30.881 20.652 31.529 21.336 32.321 21.816C33.137 22.296 34.001 22.536 34.913 22.536C35.849 22.536 36.725 22.308 37.541 21.852C38.357 21.372 39.005 20.7 39.485 19.836C39.965 18.948 40.205 17.892 40.205 16.668ZM57.835 26.964C56.203 26.964 54.739 26.676 53.443 26.1C52.147 25.5 51.115 24.696 50.347 23.688C49.603 22.68 49.195 21.564 49.123 20.34H54.199C54.295 21.108 54.667 21.744 55.315 22.248C55.987 22.752 56.815 23.004 57.799 23.004C58.759 23.004 59.503 22.812 60.031 22.428C60.583 22.044 60.859 21.552 60.859 20.952C60.859 20.304 60.523 19.824 59.851 19.512C59.203 19.176 58.159 18.816 56.719 18.432C55.231 18.072 54.007 17.7 53.047 17.316C52.111 16.932 51.295 16.344 50.599 15.552C49.927 14.76 49.591 13.692 49.591 12.348C49.591 11.244 49.903 10.236 50.527 9.324C51.175 8.412 52.087 7.692 53.263 7.164C54.463 6.636 55.867 6.372 57.475 6.372C59.851 6.372 61.747 6.972 63.163 8.172C64.579 9.348 65.359 10.944 65.503 12.96H60.679C60.607 12.168 60.271 11.544 59.671 11.088C59.095 10.608 58.315 10.368 57.331 10.368C56.419 10.368 55.711 10.536 55.207 10.872C54.727 11.208 54.487 11.676 54.487 12.276C54.487 12.948 54.823 13.464 55.495 13.824C56.167 14.16 57.211 14.508 58.627 14.868C60.067 15.228 61.255 15.6 62.191 15.984C63.127 16.368 63.931 16.968 64.603 17.784C65.299 18.576 65.659 19.632 65.683 20.952C65.683 22.104 65.359 23.136 64.711 24.048C64.087 24.96 63.175 25.68 61.975 26.208C60.799 26.712 59.419 26.964 57.835 26.964ZM81.052 6.408C82.564 6.408 83.908 6.744 85.084 7.416C86.26 8.064 87.172 9.036 87.82 10.332C88.492 11.604 88.828 13.14 88.828 14.94V26.64H83.788V15.624C83.788 14.04 83.392 12.828 82.6 11.988C81.808 11.124 80.728 10.692 79.36 10.692C77.968 10.692 76.864 11.124 76.048 11.988C75.256 12.828 74.86 14.04 74.86 15.624V26.64H69.82V0H74.86V9.18C75.508 8.316 76.372 7.644 77.452 7.164C78.532 6.66 79.732 6.408 81.052 6.408ZM98.661 9.612C99.309 8.652 100.197 7.872 101.325 7.272C102.477 6.672 103.785 6.372 105.249 6.372C106.953 6.372 108.489 6.792 109.857 7.632C111.249 8.472 112.341 9.672 113.133 11.232C113.949 12.768 114.357 14.556 114.357 16.596C114.357 18.636 113.949 20.448 113.133 22.032C112.341 23.592 111.249 24.804 109.857 25.668C108.489 26.532 106.953 26.964 105.249 26.964C103.761 26.964 102.453 26.676 101.325 26.1C100.221 25.5 99.333 24.732 98.661 23.796V26.64H93.621V0H98.661V9.612ZM109.209 16.596C109.209 15.396 108.957 14.364 108.453 13.5C107.973 12.612 107.325 11.94 106.509 11.484C105.717 11.028 104.853 10.8 103.917 10.8C103.005 10.8 102.141 11.04 101.325 11.52C100.533 11.976 99.885 12.648 99.381 13.536C98.901 14.424 98.661 15.468 98.661 16.668C98.661 17.868 98.901 18.912 99.381 19.8C99.885 20.688 100.533 21.372 101.325 21.852C102.141 22.308 103.005 22.536 103.917 22.536C104.853 22.536 105.717 22.296 106.509 21.816C107.325 21.336 107.973 20.652 108.453 19.764C108.957 18.876 109.209 17.82 109.209 16.596ZM126.876 26.964C124.956 26.964 123.228 26.544 121.692 25.704C120.156 24.84 118.944 23.628 118.056 22.068C117.192 20.508 116.76 18.708 116.76 16.668C116.76 14.628 117.204 12.828 118.092 11.268C119.004 9.708 120.24 8.508 121.8 7.668C123.36 6.804 125.1 6.372 127.02 6.372C128.94 6.372 130.68 6.804 132.24 7.668C133.8 8.508 135.024 9.708 135.912 11.268C136.824 12.828 137.28 14.628 137.28 16.668C137.28 18.708 136.812 20.508 135.876 22.068C134.964 23.628 133.716 24.84 132.132 25.704C130.572 26.544 128.82 26.964 126.876 26.964ZM126.876 22.572C127.788 22.572 128.64 22.356 129.432 21.924C130.248 21.468 130.896 20.796 131.376 19.908C131.856 19.02 132.096 17.94 132.096 16.668C132.096 14.772 131.592 13.32 130.584 12.312C129.6 11.28 128.388 10.764 126.948 10.764C125.508 10.764 124.296 11.28 123.312 12.312C122.352 13.32 121.872 14.772 121.872 16.668C121.872 18.564 122.34 20.028 123.276 21.06C124.236 22.068 125.436 22.572 126.876 22.572ZM139.681 16.596C139.681 14.58 140.077 12.792 140.869 11.232C141.685 9.672 142.777 8.472 144.145 7.632C145.537 6.792 147.085 6.372 148.789 6.372C150.277 6.372 151.573 6.672 152.677 7.272C153.805 7.872 154.705 8.628 155.377 9.54V6.696H160.453V26.64H155.377V23.724C154.729 24.66 153.829 25.44 152.677 26.064C151.549 26.664 150.241 26.964 148.753 26.964C147.073 26.964 145.537 26.532 144.145 25.668C142.777 24.804 141.685 23.592 140.869 22.032C140.077 20.448 139.681 18.636 139.681 16.596ZM155.377 16.668C155.377 15.444 155.137 14.4 154.657 13.536C154.177 12.648 153.529 11.976 152.713 11.52C151.897 11.04 151.021 10.8 150.085 10.8C149.149 10.8 148.285 11.028 147.493 11.484C146.701 11.94 146.053 12.612 145.549 13.5C145.069 14.364 144.829 15.396 144.829 16.596C144.829 17.796 145.069 18.852 145.549 19.764C146.053 20.652 146.701 21.336 147.493 21.816C148.309 22.296 149.173 22.536 150.085 22.536C151.021 22.536 151.897 22.308 152.713 21.852C153.529 21.372 154.177 20.7 154.657 19.836C155.137 18.948 155.377 17.892 155.377 16.668ZM170.415 9.792C171.063 8.736 171.903 7.908 172.935 7.308C173.991 6.708 175.191 6.408 176.535 6.408V11.7H175.203C173.619 11.7 172.419 12.072 171.603 12.816C170.811 13.56 170.415 14.856 170.415 16.704V26.64H165.375V6.696H170.415V9.792ZM178.634 16.596C178.634 14.58 179.03 12.792 179.822 11.232C180.638 9.672 181.742 8.472 183.134 7.632C184.526 6.792 186.074 6.372 187.778 6.372C189.074 6.372 190.31 6.66 191.486 7.236C192.662 7.788 193.598 8.532 194.294 9.468V0H199.406V26.64H194.294V23.688C193.67 24.672 192.794 25.464 191.666 26.064C190.538 26.664 189.23 26.964 187.742 26.964C186.062 26.964 184.526 26.532 183.134 25.668C181.742 24.804 180.638 23.592 179.822 22.032C179.03 20.448 178.634 18.636 178.634 16.596ZM194.33 16.668C194.33 15.444 194.09 14.4 193.61 13.536C193.13 12.648 192.482 11.976 191.666 11.52C190.85 11.04 189.974 10.8 189.038 10.8C188.102 10.8 187.238 11.028 186.446 11.484C185.654 11.94 185.006 12.612 184.502 13.5C184.022 14.364 183.782 15.396 183.782 16.596C183.782 17.796 184.022 18.852 184.502 19.764C185.006 20.652 185.654 21.336 186.446 21.816C187.262 22.296 188.126 22.536 189.038 22.536C189.974 22.536 190.85 22.308 191.666 21.852C192.482 21.372 193.13 20.7 193.61 19.836C194.09 18.948 194.33 17.892 194.33 16.668Z" fill="#151D48"/>
</svg>
