<svg width="48" height="48" viewBox="0 0 48 48" fill="none" xmlns="http://www.w3.org/2000/svg">
<path d="M40 0H8C3.58172 0 0 3.58172 0 8V40C0 44.4183 3.58172 48 8 48H40C44.4183 48 48 44.4183 48 40V8C48 3.58172 44.4183 0 40 0Z" fill="#FFFAF1"/>
<path d="M33.6693 30.5534C33.0293 29.9802 32.4693 29.3232 31.9993 28.6C31.4893 27.6017 31.1792 26.5115 31.0992 25.3934V22.1C31.0992 20.3438 30.4693 18.6463 29.3093 17.3267C28.1493 16.007 26.5493 15.1559 24.8093 14.9333V14.0733C24.8093 13.8373 24.7093 13.6109 24.5493 13.444C24.3793 13.2771 24.1493 13.1833 23.9193 13.1833C23.6793 13.1833 23.4493 13.2771 23.2893 13.444C23.1193 13.6109 23.0293 13.8373 23.0293 14.0733V14.9468C21.2993 15.1854 19.7192 16.0415 18.5692 17.3568C17.4292 18.672 16.7993 20.3571 16.8093 22.1V25.3934C16.7193 26.5115 16.4193 27.6017 15.9093 28.6C15.4493 29.3216 14.8893 29.9785 14.2593 30.5534C14.1893 30.6158 14.1292 30.6927 14.0892 30.7789C14.0492 30.8651 14.0293 30.9587 14.0293 31.0534V31.96C14.0293 32.1368 14.0992 32.3064 14.2292 32.4314C14.3492 32.5564 14.5192 32.6268 14.6992 32.6268H33.2292C33.4092 32.6268 33.5792 32.5564 33.6992 32.4314C33.8292 32.3064 33.8993 32.1368 33.8993 31.96V31.0534C33.8993 30.9587 33.8792 30.8651 33.8392 30.7789C33.7992 30.6927 33.7393 30.6158 33.6693 30.5534ZM15.4193 31.2935C16.0393 30.6943 16.5893 30.0228 17.0493 29.2935C17.6893 28.0878 18.0593 26.7574 18.1493 25.3934V22.1C18.1193 21.3187 18.2493 20.5402 18.5293 19.8106C18.8093 19.081 19.2393 18.4152 19.7793 17.8532C20.3193 17.2911 20.9692 16.8441 21.6892 16.5389C22.4092 16.2336 23.1892 16.0764 23.9692 16.0764C24.7492 16.0764 25.5293 16.2336 26.2493 16.5389C26.9593 16.8441 27.6193 17.2911 28.1593 17.8532C28.6993 18.4152 29.1293 19.081 29.4093 19.8106C29.6893 20.5402 29.8193 21.3187 29.7893 22.1V25.3934C29.8693 26.7574 30.2493 28.0878 30.8893 29.2935C31.3493 30.0228 31.8993 30.6943 32.5193 31.2935H15.4193Z" fill="#FFA412"/>
<path d="M24.001 34.8533C24.421 34.8436 24.821 34.6857 25.141 34.4075C25.451 34.1294 25.6609 33.7488 25.7209 33.3333H22.2109C22.2809 33.7601 22.4909 34.1496 22.8209 34.4292C23.1509 34.7088 23.571 34.8595 24.001 34.8533Z" fill="#FFA412"/>
<path d="M38.33 12.6667C40.17 12.6667 41.67 11.1743 41.67 9.3333C41.67 7.4924 40.17 6 38.33 6C36.49 6 35 7.4924 35 9.3333C35 11.1743 36.49 12.6667 38.33 12.6667Z" fill="#EB5757"/>
</svg>
