<svg width="26" height="26" viewBox="0 0 26 26" fill="none" xmlns="http://www.w3.org/2000/svg">
<path d="M1 1H3.6667L4.2 3.66699M4.2 3.66699H25L19.6667 14.333H6.3333M4.2 3.66699L6.3333 14.333M6.3333 14.333L3.2761 17.391C2.4362 18.23 3.0311 19.667 4.219 19.667H19.6667M19.6667 19.667C18.1939 19.667 17 20.861 17 22.333C17 23.806 18.1939 25 19.6667 25C21.1394 25 22.3333 23.806 22.3333 22.333C22.3333 20.861 21.1394 19.667 19.6667 19.667ZM9 22.333C9 23.806 7.8061 25 6.3333 25C4.8606 25 3.6667 23.806 3.6667 22.333C3.6667 20.861 4.8606 19.667 6.3333 19.667C7.8061 19.667 9 20.861 9 22.333Z" stroke="#737791" stroke-width="2" stroke-linecap="round" stroke-linejoin="round"/>
</svg>
