<svg width="48" height="48" viewBox="0 0 48 48" fill="none" xmlns="http://www.w3.org/2000/svg">
<path d="M32 0H16C7.16344 0 0 7.16344 0 16V32C0 40.8366 7.16344 48 16 48H32C40.8366 48 48 40.8366 48 32V16C48 7.16344 40.8366 0 32 0Z" fill="white"/>
<path d="M18.0514 13.697C16.9184 14.85 16.9184 16.716 18.0714 17.869L20.5874 20.385C22.9564 22.754 22.9564 26.611 20.5874 28.98L15.9754 24.368C14.7904 23.183 14.1934 21.621 14.1934 20.07C14.1934 18.519 14.7904 16.957 15.9754 15.772L18.0194 13.728C18.0304 13.718 18.0404 13.707 18.0514 13.697Z" fill="#5D5FEF"/>
<path d="M20.0641 19.8591L18.0731 17.8681C16.9191 16.7151 16.9091 14.8591 18.0521 13.6961C19.1841 12.5851 20.9871 12.6061 22.1081 13.7271C22.6741 14.2931 22.9571 15.0371 22.9571 15.7711C22.9571 16.5051 22.6741 17.2491 22.1081 17.8151L21.6371 18.2871" fill="#5D5FEF"/>
<path d="M29.9485 34.294C31.0805 33.141 31.0805 31.275 29.9275 30.122L27.4115 27.606C25.0425 25.237 25.0425 21.38 27.4115 19.011L32.0235 23.623C33.2085 24.808 33.8055 26.369 33.8055 27.921C33.8055 29.472 33.2085 31.034 32.0235 32.219L29.9795 34.263C29.9585 34.284 29.9485 34.294 29.9485 34.294Z" fill="#5D5FEF"/>
<path d="M27.9243 28.1411L29.9163 30.1331C31.0693 31.2861 31.0793 33.1411 29.9373 34.3051C28.8053 35.4161 27.0022 35.3951 25.8802 34.2731C25.3142 33.7071 25.0312 32.9631 25.0312 32.2291C25.0312 31.4951 25.3142 30.7511 25.8802 30.1851L26.3623 29.7031" fill="#5D5FEF"/>
</svg>
