<svg width="238" height="259" viewBox="0 0 238 259" fill="none" xmlns="http://www.w3.org/2000/svg">
<mask id="mask0_64779_78" style="mask-type:alpha" maskUnits="userSpaceOnUse" x="0" y="0" width="238" height="259">
<path d="M218 0H20C8.9543 0 0 8.9543 0 20V239C0 250.046 8.9543 259 20 259H218C229.046 259 238 250.046 238 239V20C238 8.9543 229.046 0 218 0Z" fill="#E36867"/>
</mask>
<g mask="url(#mask0_64779_78)">
<path d="M218 0H20C8.9543 0 0 8.9543 0 20V241C0 252.046 8.9543 261 20 261H218C229.046 261 238 252.046 238 241V20C238 8.9543 229.046 0 218 0Z" fill="#5D5FEF"/>
<path d="M184 100C117.174 100 63 45.8264 63 -21C63 -87.8265 117.174 -142 184 -142C250.826 -142 305 -87.8265 305 -21C305 45.8264 250.826 100 184 100Z" fill="url(#paint0_linear_64779_78)"/>
<path d="M-50 440C-134.5 440 -203 372.171 -203 288.5C-203 204.829 -134.5 137 -50 137C34.4996 137 103 204.829 103 288.5C103 372.171 34.4996 440 -50 440Z" fill="url(#paint1_linear_64779_78)"/>
</g>
<defs>
<linearGradient id="paint0_linear_64779_78" x1="28.363" y1="131.654" x2="135.391" y2="2.78299" gradientUnits="userSpaceOnUse">
<stop stop-color="white" stop-opacity="0.4"/>
<stop offset="1" stop-color="white" stop-opacity="0"/>
</linearGradient>
<linearGradient id="paint1_linear_64779_78" x1="151.538" y1="82.4078" x2="-48.289" y2="257.799" gradientUnits="userSpaceOnUse">
<stop stop-color="white" stop-opacity="0.4"/>
<stop offset="1" stop-color="white" stop-opacity="0"/>
</linearGradient>
</defs>
</svg>
