<svg width="24" height="28" viewBox="0 0 24 28" fill="none" xmlns="http://www.w3.org/2000/svg">
<path d="M21.3333 6.66699H18.6667C18.6667 2.93399 15.7333 0 12 0C8.2667 0 5.3333 2.93399 5.3333 6.66699H2.6667C1.2 6.66699 0 7.86698 0 9.33398V25.334C0 26.8 1.2 28 2.6667 28H21.3333C22.8 28 24 26.8 24 25.334V9.33398C24 7.86698 22.8 6.66699 21.3333 6.66699ZM12 2.66699C14.2667 2.66699 16 4.39999 16 6.66699H8C8 4.39999 9.7333 2.66699 12 2.66699ZM21.3333 25.334H2.6667V9.33398H21.3333V25.334ZM12 14.667C9.7333 14.667 8 12.934 8 10.667H5.3333C5.3333 14.4 8.2667 17.334 12 17.334C15.7333 17.334 18.6667 14.4 18.6667 10.667H16C16 12.934 14.2667 14.667 12 14.667Z" fill="#737791"/>
</svg>
