<svg width="26" height="27" viewBox="0 0 26 27" fill="none" xmlns="http://www.w3.org/2000/svg">
<path d="M12.9722 8C14.3867 8 15.7433 8.56201 16.7435 9.56201C17.7436 10.562 18.3056 11.919 18.3056 13.333C18.3056 14.748 17.7436 16.104 16.7435 17.104C15.7433 18.105 14.3867 18.666 12.9722 18.666C11.5577 18.666 10.2012 18.105 9.20098 17.104C8.20078 16.104 7.63889 14.748 7.63889 13.333C7.63889 11.919 8.20078 10.562 9.20098 9.56201C10.2012 8.56201 11.5577 8 12.9722 8ZM12.9722 10.666C12.265 10.666 11.5867 10.947 11.0866 11.447C10.5865 11.948 10.3056 12.626 10.3056 13.333C10.3056 14.04 10.5865 14.719 11.0866 15.219C11.5867 15.719 12.265 16 12.9722 16C13.6795 16 14.3577 15.719 14.8578 15.219C15.3579 14.719 15.6389 14.04 15.6389 13.333C15.6389 12.626 15.3579 11.948 14.8578 11.447C14.3577 10.947 13.6795 10.666 12.9722 10.666ZM10.3056 26.666C9.97218 26.666 9.69219 26.426 9.63889 26.106L9.14559 22.573C8.30559 22.24 7.58558 21.786 6.89218 21.253L3.57218 22.6C3.27888 22.706 2.91888 22.6 2.75888 22.306L0.0921878 17.693C0.0105878 17.556 -0.0182143 17.393 0.0112857 17.236C0.0406857 17.079 0.126384 16.938 0.252184 16.84L3.06558 14.626L2.97219 13.333L3.06558 12L0.252184 9.82599C0.126384 9.72799 0.0406857 9.58699 0.0112857 9.42999C-0.0182143 9.27299 0.0105878 9.11002 0.0921878 8.97302L2.75888 4.35999C2.91888 4.06599 3.27888 3.94598 3.57218 4.06598L6.89218 5.40002C7.58558 4.88002 8.30559 4.42602 9.14559 4.09302L9.63889 0.559998C9.69219 0.239998 9.97218 0 10.3056 0H15.6389C15.9722 0 16.2522 0.239998 16.3056 0.559998L16.7989 4.09302C17.6389 4.42602 18.3589 4.88002 19.0522 5.40002L22.3722 4.06598C22.6656 3.94598 23.0256 4.06599 23.1856 4.35999L25.8522 8.97302C26.0256 9.26602 25.9456 9.62599 25.6922 9.82599L22.8789 12L22.9722 13.333L22.8789 14.666L25.6922 16.84C25.9456 17.04 26.0256 17.4 25.8522 17.693L23.1856 22.306C23.0256 22.6 22.6656 22.72 22.3722 22.6L19.0522 21.266C18.3589 21.786 17.6389 22.24 16.7989 22.573L16.3056 26.106C16.2522 26.426 15.9722 26.666 15.6389 26.666H10.3056ZM11.9722 2.66602L11.4789 6.146C9.87888 6.48 8.46558 7.33302 7.43888 8.52002L4.22559 7.133L3.22559 8.86603L6.03889 10.933C5.50559 12.489 5.50559 14.178 6.03889 15.733L3.21218 17.813L4.21218 19.546L7.45219 18.16C8.47889 19.333 9.87889 20.186 11.4656 20.506L11.9589 24H13.9856L14.4789 20.52C16.0656 20.186 17.4656 19.333 18.4922 18.16L21.7322 19.546L22.7322 17.813L19.9056 15.746C20.4389 14.186 20.4389 12.493 19.9056 10.933L22.7189 8.86603L21.7189 7.133L18.5055 8.52002C17.4578 7.30702 16.0367 6.47703 14.4656 6.16003L13.9722 2.66602H11.9722Z" fill="#737791"/>
</svg>
