<svg width="22" height="22" viewBox="0 0 22 22" fill="none" xmlns="http://www.w3.org/2000/svg">
<path fill-rule="evenodd" clip-rule="evenodd" d="M16.4414 16.868L21.0038 11.545C21.2217 11.296 21.3331 10.982 21.3333 10.667C21.3334 10.451 21.2814 10.235 21.1757 10.038C21.1288 9.94996 21.0714 9.866 21.0038 9.789L16.4414 4.466C15.9622 3.907 15.1205 3.84198 14.5614 4.32098C14.0022 4.79998 13.9374 5.64199 14.4166 6.20099L17.1012 9.33398H6.775C6.0386 9.33398 5.4417 9.93099 5.4417 10.667C5.4417 11.403 6.0386 12 6.775 12H17.1013L14.4166 15.133C13.9374 15.692 14.0022 16.534 14.5614 17.013C15.1205 17.492 15.9622 17.427 16.4414 16.868ZM8 2.66699C8.7363 2.66699 9.3333 3.264 9.3333 4V6C9.3333 6.737 9.9302 7.33398 10.6666 7.33398C11.403 7.33398 12 6.737 12 6V4C12 1.791 10.2091 0 8 0H4C1.7908 0 0 1.791 0 4V17.334C0 19.543 1.7908 21.334 4 21.334H8C10.2091 21.334 12 19.543 12 17.334V15.334C12 14.597 11.403 14 10.6666 14C9.9302 14 9.3333 14.597 9.3333 15.334V17.334C9.3333 18.07 8.7363 18.667 8 18.667H4C3.2636 18.667 2.6666 18.07 2.6666 17.334V4C2.6666 3.264 3.2636 2.66699 4 2.66699H8Z" fill="#737791"/>
</svg>
